<svg xmlns="http://www.w3.org/2000/svg" xmlns:xlink="http://www.w3.org/1999/xlink" width="500" zoomAndPan="magnify" viewBox="0 0 375 374.999991" height="500" preserveAspectRatio="xMidYMid meet" version="1.0"><defs><clipPath id="id1"><path d="M 132.695312 132.695312 L 242.195312 132.695312 L 242.195312 242.195312 L 132.695312 242.195312 Z M 132.695312 132.695312 " clip-rule="nonzero"/></clipPath></defs><rect x="-37.5" width="450" fill="#ffffff" y="-37.499999" height="449.999989" fill-opacity="1"/><rect x="-37.5" width="450" fill="#ffffff" y="-37.499999" height="449.999989" fill-opacity="1"/><rect x="-37.5" width="450" fill="#ffffff" y="-37.499999" height="449.999989" fill-opacity="1"/><rect x="-37.5" width="450" fill="#ffffff" y="-37.499999" height="449.999989" fill-opacity="1"/><g clip-path="url(#id1)"><path fill="#000000" d="M 236.722656 216.644531 L 138.171875 216.644531 C 137.164062 216.644531 136.347656 215.824219 136.347656 214.820312 L 136.347656 209.347656 L 238.546875 209.347656 L 238.546875 214.820312 C 238.546875 215.824219 237.726562 216.644531 236.722656 216.644531 Z M 196.570312 227.597656 L 178.320312 227.597656 L 178.320312 220.296875 L 196.570312 220.296875 Z M 207.519531 231.246094 C 208.527344 231.246094 209.347656 232.066406 209.347656 233.070312 L 209.347656 238.546875 L 165.546875 238.546875 L 165.546875 233.070312 C 165.546875 232.066406 166.367188 231.246094 167.371094 231.246094 Z M 138.171875 150.945312 L 145.472656 150.945312 L 145.472656 152.769531 L 139.996094 152.769531 C 138.992188 152.769531 138.171875 153.589844 138.171875 154.597656 L 138.171875 202.046875 C 138.171875 203.050781 138.992188 203.871094 139.996094 203.871094 L 234.894531 203.871094 C 235.902344 203.871094 236.722656 203.050781 236.722656 202.046875 L 236.722656 154.597656 C 236.722656 153.589844 235.902344 152.769531 234.894531 152.769531 L 229.421875 152.769531 L 229.421875 150.945312 L 236.722656 150.945312 C 237.726562 150.945312 238.546875 151.765625 238.546875 152.769531 L 238.546875 205.695312 L 136.347656 205.695312 L 136.347656 152.769531 C 136.347656 151.765625 137.164062 150.945312 138.171875 150.945312 Z M 150.945312 136.347656 L 223.945312 136.347656 C 224.949219 136.347656 225.769531 137.164062 225.769531 138.171875 L 225.769531 143.644531 L 149.121094 143.644531 L 149.121094 138.171875 C 149.121094 137.164062 149.941406 136.347656 150.945312 136.347656 Z M 150.945312 196.570312 L 223.945312 196.570312 C 226.96875 196.570312 229.421875 194.117188 229.421875 191.097656 L 229.421875 156.421875 L 233.070312 156.421875 L 233.070312 200.222656 L 141.820312 200.222656 L 141.820312 156.421875 L 145.472656 156.421875 L 145.472656 191.097656 C 145.472656 194.117188 147.921875 196.570312 150.945312 196.570312 Z M 225.769531 191.097656 C 225.769531 192.101562 224.949219 192.921875 223.945312 192.921875 L 150.945312 192.921875 C 149.941406 192.921875 149.121094 192.101562 149.121094 191.097656 L 149.121094 147.296875 L 225.769531 147.296875 Z M 236.722656 147.296875 L 229.421875 147.296875 L 229.421875 138.171875 C 229.421875 135.148438 226.96875 132.695312 223.945312 132.695312 L 150.945312 132.695312 C 147.921875 132.695312 145.472656 135.148438 145.472656 138.171875 L 145.472656 147.296875 L 138.171875 147.296875 C 135.148438 147.296875 132.695312 149.75 132.695312 152.769531 L 132.695312 214.820312 C 132.695312 217.84375 135.148438 220.296875 138.171875 220.296875 L 174.671875 220.296875 L 174.671875 227.597656 L 167.371094 227.597656 C 164.347656 227.597656 161.894531 230.046875 161.894531 233.070312 L 161.894531 240.371094 C 161.894531 241.375 162.714844 242.195312 163.722656 242.195312 L 211.171875 242.195312 C 212.175781 242.195312 212.996094 241.375 212.996094 240.371094 L 212.996094 233.070312 C 212.996094 230.046875 210.542969 227.597656 207.519531 227.597656 L 200.222656 227.597656 L 200.222656 220.296875 L 236.722656 220.296875 C 239.742188 220.296875 242.195312 217.84375 242.195312 214.820312 L 242.195312 152.769531 C 242.195312 149.75 239.742188 147.296875 236.722656 147.296875 " fill-opacity="1" fill-rule="nonzero"/></g><path fill="#000000" d="M 229.421875 211.171875 L 225.769531 211.171875 C 224.765625 211.171875 223.945312 211.992188 223.945312 212.996094 C 223.945312 214 224.765625 214.820312 225.769531 214.820312 L 229.421875 214.820312 C 230.425781 214.820312 231.246094 214 231.246094 212.996094 C 231.246094 211.992188 230.425781 211.171875 229.421875 211.171875 " fill-opacity="1" fill-rule="nonzero"/><path fill="#000000" d="M 156.421875 138.171875 L 152.769531 138.171875 L 152.769531 141.820312 L 156.421875 141.820312 L 156.421875 138.171875 " fill-opacity="1" fill-rule="nonzero"/><path fill="#000000" d="M 163.722656 138.171875 L 160.070312 138.171875 L 160.070312 141.820312 L 163.722656 141.820312 L 163.722656 138.171875 " fill-opacity="1" fill-rule="nonzero"/><path fill="#000000" d="M 171.019531 138.171875 L 167.371094 138.171875 L 167.371094 141.820312 L 171.019531 141.820312 L 171.019531 138.171875 " fill-opacity="1" fill-rule="nonzero"/><path fill="#000000" d="M 161.894531 154.597656 L 165.546875 154.597656 C 166.550781 154.597656 167.371094 153.777344 167.371094 152.769531 C 167.371094 151.765625 166.550781 150.945312 165.546875 150.945312 L 161.894531 150.945312 C 160.890625 150.945312 160.070312 151.765625 160.070312 152.769531 C 160.070312 153.777344 160.890625 154.597656 161.894531 154.597656 " fill-opacity="1" fill-rule="nonzero"/><path fill="#000000" d="M 171.019531 154.597656 L 172.847656 154.597656 C 173.851562 154.597656 174.671875 153.777344 174.671875 152.769531 C 174.671875 151.765625 173.851562 150.945312 172.847656 150.945312 L 171.019531 150.945312 C 170.015625 150.945312 169.195312 151.765625 169.195312 152.769531 C 169.195312 153.777344 170.015625 154.597656 171.019531 154.597656 " fill-opacity="1" fill-rule="nonzero"/><path fill="#000000" d="M 161.894531 178.320312 L 165.546875 178.320312 C 166.550781 178.320312 167.371094 177.5 167.371094 176.496094 C 167.371094 175.492188 166.550781 174.671875 165.546875 174.671875 L 161.894531 174.671875 C 160.890625 174.671875 160.070312 175.492188 160.070312 176.496094 C 160.070312 177.5 160.890625 178.320312 161.894531 178.320312 " fill-opacity="1" fill-rule="nonzero"/><path fill="#000000" d="M 174.671875 176.496094 C 174.671875 175.492188 173.851562 174.671875 172.847656 174.671875 L 171.019531 174.671875 C 170.015625 174.671875 169.195312 175.492188 169.195312 176.496094 C 169.195312 177.5 170.015625 178.320312 171.019531 178.320312 L 172.847656 178.320312 C 173.851562 178.320312 174.671875 177.5 174.671875 176.496094 " fill-opacity="1" fill-rule="nonzero"/><path fill="#000000" d="M 163.722656 158.246094 C 163.722656 159.25 164.539062 160.070312 165.546875 160.070312 L 176.496094 160.070312 C 177.5 160.070312 178.320312 159.25 178.320312 158.246094 C 178.320312 157.242188 177.5 156.421875 176.496094 156.421875 L 165.546875 156.421875 C 164.539062 156.421875 163.722656 157.242188 163.722656 158.246094 " fill-opacity="1" fill-rule="nonzero"/><path fill="#000000" d="M 165.546875 165.546875 L 176.496094 165.546875 C 177.5 165.546875 178.320312 164.726562 178.320312 163.722656 C 178.320312 162.714844 177.5 161.894531 176.496094 161.894531 L 165.546875 161.894531 C 164.539062 161.894531 163.722656 162.714844 163.722656 163.722656 C 163.722656 164.726562 164.539062 165.546875 165.546875 165.546875 " fill-opacity="1" fill-rule="nonzero"/><path fill="#000000" d="M 183.796875 165.546875 L 205.695312 165.546875 C 206.699219 165.546875 207.519531 164.726562 207.519531 163.722656 C 207.519531 162.714844 206.699219 161.894531 205.695312 161.894531 L 183.796875 161.894531 C 182.789062 161.894531 181.972656 162.714844 181.972656 163.722656 C 181.972656 164.726562 182.789062 165.546875 183.796875 165.546875 " fill-opacity="1" fill-rule="nonzero"/><path fill="#000000" d="M 165.546875 171.019531 L 176.496094 171.019531 C 177.5 171.019531 178.320312 170.199219 178.320312 169.195312 C 178.320312 168.191406 177.5 167.371094 176.496094 167.371094 L 165.546875 167.371094 C 164.539062 167.371094 163.722656 168.191406 163.722656 169.195312 C 163.722656 170.199219 164.539062 171.019531 165.546875 171.019531 " fill-opacity="1" fill-rule="nonzero"/><path fill="#000000" d="M 183.796875 171.019531 L 212.996094 171.019531 C 214 171.019531 214.820312 170.199219 214.820312 169.195312 C 214.820312 168.191406 214 167.371094 212.996094 167.371094 L 183.796875 167.371094 C 182.789062 167.371094 181.972656 168.191406 181.972656 169.195312 C 181.972656 170.199219 182.789062 171.019531 183.796875 171.019531 " fill-opacity="1" fill-rule="nonzero"/><path fill="#000000" d="M 167.371094 180.144531 L 165.546875 180.144531 C 164.539062 180.144531 163.722656 180.964844 163.722656 181.972656 C 163.722656 182.976562 164.539062 183.796875 165.546875 183.796875 L 167.371094 183.796875 C 168.375 183.796875 169.195312 182.976562 169.195312 181.972656 C 169.195312 180.964844 168.375 180.144531 167.371094 180.144531 " fill-opacity="1" fill-rule="nonzero"/><path fill="#000000" d="M 189.269531 180.144531 L 174.671875 180.144531 C 173.664062 180.144531 172.847656 180.964844 172.847656 181.972656 C 172.847656 182.976562 173.664062 183.796875 174.671875 183.796875 L 189.269531 183.796875 C 190.277344 183.796875 191.097656 182.976562 191.097656 181.972656 C 191.097656 180.964844 190.277344 180.144531 189.269531 180.144531 " fill-opacity="1" fill-rule="nonzero"/><path fill="#000000" d="M 207.519531 180.144531 L 196.570312 180.144531 C 195.566406 180.144531 194.746094 180.964844 194.746094 181.972656 C 194.746094 182.976562 195.566406 183.796875 196.570312 183.796875 L 207.519531 183.796875 C 208.527344 183.796875 209.347656 182.976562 209.347656 181.972656 C 209.347656 180.964844 208.527344 180.144531 207.519531 180.144531 " fill-opacity="1" fill-rule="nonzero"/><path fill="#000000" d="M 167.371094 185.621094 L 165.546875 185.621094 C 164.539062 185.621094 163.722656 186.441406 163.722656 187.445312 C 163.722656 188.449219 164.539062 189.269531 165.546875 189.269531 L 167.371094 189.269531 C 168.375 189.269531 169.195312 188.449219 169.195312 187.445312 C 169.195312 186.441406 168.375 185.621094 167.371094 185.621094 " fill-opacity="1" fill-rule="nonzero"/><path fill="#000000" d="M 189.269531 185.621094 L 174.671875 185.621094 C 173.664062 185.621094 172.847656 186.441406 172.847656 187.445312 C 172.847656 188.449219 173.664062 189.269531 174.671875 189.269531 L 189.269531 189.269531 C 190.277344 189.269531 191.097656 188.449219 191.097656 187.445312 C 191.097656 186.441406 190.277344 185.621094 189.269531 185.621094 " fill-opacity="1" fill-rule="nonzero"/><path fill="#000000" d="M 200.222656 185.621094 L 196.570312 185.621094 C 195.566406 185.621094 194.746094 186.441406 194.746094 187.445312 C 194.746094 188.449219 195.566406 189.269531 196.570312 189.269531 L 200.222656 189.269531 C 201.226562 189.269531 202.046875 188.449219 202.046875 187.445312 C 202.046875 186.441406 201.226562 185.621094 200.222656 185.621094 " fill-opacity="1" fill-rule="nonzero"/><path fill="#000000" d="M 183.796875 160.070312 L 187.445312 160.070312 C 188.449219 160.070312 189.269531 159.25 189.269531 158.246094 C 189.269531 157.242188 188.449219 156.421875 187.445312 156.421875 L 183.796875 156.421875 C 182.789062 156.421875 181.972656 157.242188 181.972656 158.246094 C 181.972656 159.25 182.789062 160.070312 183.796875 160.070312 " fill-opacity="1" fill-rule="nonzero"/></svg>