<svg xmlns="http://www.w3.org/2000/svg" xmlns:xlink="http://www.w3.org/1999/xlink" width="500" zoomAndPan="magnify" viewBox="0 0 375 374.999991" height="500" preserveAspectRatio="xMidYMid meet" version="1.0"><defs><clipPath id="id1"><path d="M 125 112.5 L 163 112.5 L 163 150 L 125 150 Z M 125 112.5 " clip-rule="nonzero"/></clipPath><clipPath id="id2"><path d="M 225 212 L 262.5 212 L 262.5 250 L 225 250 Z M 225 212 " clip-rule="nonzero"/></clipPath><clipPath id="id3"><path d="M 112.5 211 L 164 211 L 164 262.5 L 112.5 262.5 Z M 112.5 211 " clip-rule="nonzero"/></clipPath></defs><rect x="-37.5" width="450" fill="#ffffff" y="-37.499999" height="449.999989" fill-opacity="1"/><rect x="-37.5" width="450" fill="#ffffff" y="-37.499999" height="449.999989" fill-opacity="1"/><rect x="-37.5" width="450" fill="#ffffff" y="-37.499999" height="449.999989" fill-opacity="1"/><g clip-path="url(#id1)"><path fill="#000000" d="M 140.890625 149.179688 L 162.292969 127.773438 L 148.140625 113.621094 C 147.019531 112.503906 145.214844 112.503906 144.097656 113.621094 L 126.738281 130.976562 C 126.199219 131.515625 125.898438 132.242188 125.898438 133 C 125.898438 133.757812 126.199219 134.488281 126.738281 135.019531 Z M 140.890625 149.179688 " fill-opacity="1" fill-rule="nonzero"/></g><path fill="#000000" d="M 229.023438 194.507812 C 227.90625 193.386719 226.101562 193.386719 224.980469 194.507812 L 217.730469 201.757812 L 209.644531 193.664062 L 223.800781 179.511719 C 224.339844 178.976562 224.636719 178.25 224.636719 177.492188 C 224.636719 176.734375 224.339844 176.003906 223.800781 175.46875 L 199.535156 151.203125 C 198.460938 150.128906 196.5625 150.128906 195.492188 151.203125 L 181.335938 165.359375 L 173.242188 157.269531 L 180.492188 150.019531 C 181.03125 149.480469 181.332031 148.753906 181.332031 147.996094 C 181.332031 147.238281 181.03125 146.507812 180.492188 145.976562 L 166.335938 131.820312 L 144.929688 153.222656 L 159.085938 167.378906 C 159.625 167.914062 160.351562 168.214844 161.109375 168.214844 C 161.867188 168.214844 162.597656 167.914062 163.132812 167.378906 L 169.195312 161.3125 L 177.289062 169.402344 L 163.132812 183.558594 C 162.59375 184.097656 162.292969 184.824219 162.292969 185.582031 C 162.292969 186.339844 162.59375 187.066406 163.132812 187.601562 L 173.242188 197.710938 L 168.992188 201.960938 C 166.675781 200.421875 163.957031 199.589844 161.109375 199.589844 C 157.289062 199.589844 153.699219 201.078125 150.996094 203.777344 C 145.421875 209.351562 145.421875 218.425781 150.996094 224 C 153.695312 226.699219 157.289062 228.1875 161.109375 228.1875 C 164.925781 228.1875 168.519531 226.699219 171.21875 224 C 176.101562 219.117188 176.707031 211.550781 173.039062 206.003906 L 177.289062 201.757812 L 187.398438 211.867188 C 187.957031 212.421875 188.691406 212.703125 189.421875 212.703125 C 190.152344 212.703125 190.886719 212.421875 191.445312 211.867188 L 205.597656 197.710938 L 213.683594 205.804688 L 207.621094 211.867188 C 206.503906 212.984375 206.503906 214.792969 207.621094 215.910156 L 221.777344 230.066406 L 243.179688 208.664062 Z M 229.023438 194.507812 " fill-opacity="1" fill-rule="nonzero"/><g clip-path="url(#id2)"><path fill="#000000" d="M 261.382812 226.863281 L 247.226562 212.710938 L 225.824219 234.109375 L 239.980469 248.265625 C 240.519531 248.804688 241.242188 249.105469 242.003906 249.105469 C 242.765625 249.105469 243.492188 248.804688 244.023438 248.265625 L 261.382812 230.90625 C 262.496094 229.789062 262.496094 227.980469 261.382812 226.863281 Z M 261.382812 226.863281 " fill-opacity="1" fill-rule="nonzero"/></g><path fill="#000000" d="M 161.113281 239.628906 C 146.917969 239.628906 135.375 228.082031 135.375 213.886719 C 135.375 212.304688 134.09375 211.027344 132.511719 211.027344 C 130.933594 211.027344 129.652344 212.304688 129.652344 213.886719 C 129.652344 231.234375 143.765625 245.347656 161.113281 245.347656 C 162.691406 245.347656 163.972656 244.070312 163.972656 242.488281 C 163.972656 240.90625 162.691406 239.628906 161.113281 239.628906 Z M 161.113281 239.628906 " fill-opacity="1" fill-rule="nonzero"/><g clip-path="url(#id3)"><path fill="#000000" d="M 161.113281 256.785156 C 149.652344 256.785156 138.878906 252.320312 130.777344 244.21875 C 122.675781 236.117188 118.210938 225.34375 118.214844 213.886719 C 118.214844 212.308594 116.933594 211.027344 115.355469 211.027344 C 113.777344 211.027344 112.496094 212.304688 112.496094 213.886719 C 112.496094 226.875 117.550781 239.082031 126.734375 248.265625 C 135.917969 257.449219 148.125 262.503906 161.113281 262.503906 C 162.691406 262.503906 163.972656 261.226562 163.972656 259.644531 C 163.972656 258.0625 162.691406 256.785156 161.113281 256.785156 Z M 161.113281 256.785156 " fill-opacity="1" fill-rule="nonzero"/></g></svg>