<svg xmlns="http://www.w3.org/2000/svg" xmlns:xlink="http://www.w3.org/1999/xlink" width="500" zoomAndPan="magnify" viewBox="0 0 375 374.999991" height="500" preserveAspectRatio="xMidYMid meet" version="1.0"><defs><clipPath id="id1"><path d="M 232 131.4375 L 255 131.4375 L 255 155 L 232 155 Z M 232 131.4375 " clip-rule="nonzero"/></clipPath><clipPath id="id2"><path d="M 120 131.4375 L 143 131.4375 L 143 155 L 120 155 Z M 120 131.4375 " clip-rule="nonzero"/></clipPath><clipPath id="id3"><path d="M 225.355469 156.804688 L 262.394531 156.804688 L 262.394531 230.859375 L 225.355469 230.859375 Z M 225.355469 156.804688 " clip-rule="nonzero"/></clipPath><clipPath id="id4"><path d="M 112.5 156 L 150 156 L 150 231 L 112.5 231 Z M 112.5 156 " clip-rule="nonzero"/></clipPath><clipPath id="id5"><path d="M 168 170 L 207 170 L 207 243.9375 L 168 243.9375 Z M 168 170 " clip-rule="nonzero"/></clipPath></defs><rect x="-37.5" width="450" fill="#ffffff" y="-37.499999" height="449.999989" fill-opacity="1"/><rect x="-37.5" width="450" fill="#ffffff" y="-37.499999" height="449.999989" fill-opacity="1"/><rect x="-37.5" width="450" fill="#ffffff" y="-37.499999" height="449.999989" fill-opacity="1"/><g clip-path="url(#id1)"><path fill="#000000" d="M 254.945312 142.863281 C 254.945312 149.171875 249.847656 154.289062 243.558594 154.289062 C 237.269531 154.289062 232.171875 149.171875 232.171875 142.863281 C 232.171875 136.554688 237.269531 131.4375 243.558594 131.4375 C 249.847656 131.4375 254.945312 136.554688 254.945312 142.863281 " fill-opacity="1" fill-rule="nonzero"/></g><g clip-path="url(#id2)"><path fill="#000000" d="M 142.820312 142.863281 C 142.820312 149.171875 137.722656 154.289062 131.433594 154.289062 C 125.144531 154.289062 120.046875 149.171875 120.046875 142.863281 C 120.046875 136.554688 125.144531 131.4375 131.433594 131.4375 C 137.722656 131.4375 142.820312 136.554688 142.820312 142.863281 " fill-opacity="1" fill-rule="nonzero"/></g><path fill="#000000" d="M 227.355469 149.894531 C 227.355469 156.203125 222.253906 161.320312 215.964844 161.320312 C 209.675781 161.320312 204.578125 156.203125 204.578125 149.894531 C 204.578125 143.585938 209.675781 138.46875 215.964844 138.46875 C 222.253906 138.46875 227.355469 143.585938 227.355469 149.894531 " fill-opacity="1" fill-rule="nonzero"/><path fill="#000000" d="M 170.414062 149.894531 C 170.414062 156.203125 165.316406 161.320312 159.027344 161.320312 C 152.738281 161.320312 147.640625 156.203125 147.640625 149.894531 C 147.640625 143.585938 152.738281 138.46875 159.027344 138.46875 C 165.316406 138.46875 170.414062 143.585938 170.414062 149.894531 " fill-opacity="1" fill-rule="nonzero"/><g clip-path="url(#id3)"><path fill="#000000" d="M 237.425781 171.535156 L 237.425781 171.621094 L 237.421875 171.703125 L 235.675781 199.53125 C 235.652344 202.121094 234.664062 204.507812 233.023438 206.3125 L 233.921875 225.007812 C 233.921875 228.167969 236.5 230.753906 239.652344 230.753906 L 247.46875 230.753906 C 250.617188 230.753906 253.195312 228.167969 253.195312 225.007812 L 254.402344 199.867188 C 257.9375 199.238281 260.640625 196.128906 260.640625 192.410156 L 262.394531 164.503906 C 262.394531 160.335938 258.992188 156.925781 254.839844 156.925781 L 232.28125 156.925781 C 229.257812 156.925781 226.644531 158.734375 225.4375 161.320312 L 227.246094 161.320312 C 232.859375 161.320312 237.425781 165.902344 237.425781 171.535156 " fill-opacity="1" fill-rule="nonzero"/></g><g clip-path="url(#id4)"><path fill="#000000" d="M 142.714844 156.925781 L 120.15625 156.925781 C 116 156.925781 112.601562 160.335938 112.601562 164.503906 L 114.351562 192.410156 C 114.351562 196.128906 117.058594 199.238281 120.589844 199.867188 L 121.796875 225.007812 C 121.796875 228.167969 124.375 230.753906 127.527344 230.753906 L 135.34375 230.753906 C 138.492188 230.753906 141.070312 228.167969 141.070312 225.007812 L 141.96875 206.3125 C 140.332031 204.507812 139.339844 202.121094 139.320312 199.53125 L 137.570312 171.703125 L 137.566406 171.621094 L 137.566406 171.535156 C 137.566406 165.902344 142.132812 161.320312 147.75 161.320312 L 149.554688 161.320312 C 148.347656 158.734375 145.734375 156.925781 142.714844 156.925781 " fill-opacity="1" fill-rule="nonzero"/></g><path fill="#000000" d="M 208.957031 177.691406 L 208.957031 177.773438 L 208.953125 177.855469 L 207.207031 205.683594 C 207.1875 207.828125 206.503906 209.828125 205.34375 211.480469 L 206.332031 232.039062 C 206.332031 235.199219 208.90625 237.785156 212.058594 237.785156 L 219.875 237.785156 C 223.023438 237.785156 225.601562 235.199219 225.601562 232.039062 L 226.808594 206.898438 C 230.34375 206.269531 233.046875 203.160156 233.046875 199.441406 L 234.800781 171.535156 C 234.800781 167.367188 231.398438 163.957031 227.246094 163.957031 L 204.6875 163.957031 C 202.023438 163.957031 199.671875 165.367188 198.328125 167.472656 L 198.777344 167.472656 C 204.390625 167.472656 208.957031 172.054688 208.957031 177.691406 " fill-opacity="1" fill-rule="nonzero"/><path fill="#000000" d="M 170.308594 163.957031 L 147.75 163.957031 C 143.59375 163.957031 140.195312 167.367188 140.195312 171.535156 L 141.945312 199.441406 C 141.945312 203.160156 144.652344 206.269531 148.183594 206.898438 L 149.390625 232.039062 C 149.390625 235.199219 151.96875 237.785156 155.117188 237.785156 L 162.9375 237.785156 C 166.085938 237.785156 168.664062 235.199219 168.664062 232.039062 L 169.652344 211.480469 C 168.488281 209.828125 167.804688 207.828125 167.789062 205.683594 L 166.039062 177.855469 L 166.035156 177.773438 L 166.035156 177.691406 C 166.035156 172.054688 170.605469 167.472656 176.21875 167.472656 L 176.667969 167.472656 C 175.320312 165.367188 172.972656 163.957031 170.308594 163.957031 " fill-opacity="1" fill-rule="nonzero"/><g clip-path="url(#id5)"><path fill="#000000" d="M 204.578125 205.59375 L 206.332031 177.691406 C 206.332031 173.519531 202.929688 170.109375 198.777344 170.109375 L 176.21875 170.109375 C 172.0625 170.109375 168.664062 173.519531 168.664062 177.691406 L 170.414062 205.59375 C 170.414062 209.3125 173.121094 212.421875 176.652344 213.050781 L 177.859375 238.191406 C 177.859375 241.351562 180.4375 243.9375 183.589844 243.9375 L 191.40625 243.9375 C 194.554688 243.9375 197.132812 241.351562 197.132812 238.191406 L 198.339844 213.050781 C 201.875 212.421875 204.578125 209.3125 204.578125 205.59375 " fill-opacity="1" fill-rule="nonzero"/></g><path fill="#000000" d="M 198.882812 156.046875 C 198.882812 162.355469 193.785156 167.472656 187.496094 167.472656 C 181.207031 167.472656 176.109375 162.355469 176.109375 156.046875 C 176.109375 149.738281 181.207031 144.621094 187.496094 144.621094 C 193.785156 144.621094 198.882812 149.738281 198.882812 156.046875 " fill-opacity="1" fill-rule="nonzero"/></svg>